<svg width="48" height="48" viewBox="0 0 48 48" fill="none" xmlns="http://www.w3.org/2000/svg">
<rect width="48" height="48" rx="8" fill="#F3F1EE"/>
<g clip-path="url(#clip0_1_1861)">
<path d="M31 12H17C14.239 12 12 14.239 12 17V31C12 33.761 14.239 36 17 36H31C33.762 36 36 33.761 36 31V17C36 14.239 33.762 12 31 12ZM28 19H26.076C25.461 19 25 19.252 25 19.889V21H28L27.762 24H25V32H22V24H20V21H22V19.077C22 17.055 23.064 16 25.461 16H28V19Z" fill="#1C1C1C"/>
</g>
<defs>
<clipPath id="clip0_1_1861">
<rect width="24" height="24" fill="white" transform="translate(12 12)"/>
</clipPath>
</defs>
</svg>
