<svg width="144" height="23" viewBox="0 0 144 23" fill="none" xmlns="http://www.w3.org/2000/svg">
<path d="M4.40076 22.6373L5.74139 18.7385H13.9892L15.3007 22.6373H19.9929L12.4154 1.48094H7.54833L0 22.6373H4.40076ZM6.96545 15.021L9.85071 6.49803L12.736 15.021H6.96545Z" fill="#1C1C1C"/>
<path d="M21.043 7.28384V22.6373H25.2398V14.5072C25.2398 12.2102 26.289 10.5782 28.2416 10.5782C30.4274 10.5782 30.7189 12.2102 30.7189 13.5703V22.6373H34.9156V12.6334C34.9156 9.85282 33.2253 6.92115 29.5823 6.92115C27.4256 6.92115 25.9684 7.85808 25.0066 9.36925V7.28384H21.043Z" fill="#1C1C1C"/>
<path d="M35.9583 10.6991H38.3481V18.0131C38.3481 20.8844 39.747 23 43.6523 23C45.0221 23 46.5667 22.6373 47.7908 21.6702L46.7708 18.4665C45.7507 19.1012 45.1387 19.3127 44.4392 19.3127C42.8946 19.3127 42.5449 18.5874 42.5449 17.318V10.6991H46.5959V7.28384H42.5449V1.48094L38.3481 2.96189V7.28384H35.9583V10.6991Z" fill="#1C1C1C"/>
<path d="M50.7836 0C49.2972 0 48.2772 1.14849 48.2772 2.53876C48.2772 3.92904 49.2972 5.07753 50.7836 5.07753C52.3282 5.07753 53.3483 3.92904 53.3483 2.53876C53.3483 1.14849 52.3282 0 50.7836 0ZM48.6852 7.28384V22.6373H52.882V7.28384H48.6852Z" fill="#1C1C1C"/>
<path d="M67.1185 17.8318C67.1185 15.3233 65.4573 14.0539 62.776 13.389L60.3571 12.7845C59.4244 12.5427 58.9581 12.2405 58.9581 11.5151C58.9581 10.8804 59.4536 10.276 60.8816 10.276C62.7469 10.276 64.2624 11.3338 65.1076 11.9685L66.9728 8.88568C65.6904 7.97897 63.7669 6.92115 60.8525 6.92115C56.9763 6.92115 55.082 9.39947 55.082 11.6662C55.082 14.7188 57.3261 15.8673 59.3079 16.3206L61.4062 16.8042C62.6012 17.0762 63.1549 17.4389 63.1549 18.1945C63.1549 18.9198 62.6012 19.6754 60.9108 19.6754C59.133 19.6754 57.4135 18.8292 56.1894 17.8016L54.2951 20.7937C55.8106 21.9724 58.113 23 61.1731 23C65.195 23 67.1185 20.5519 67.1185 17.8318Z" fill="#1C1C1C"/>
<path d="M67.6167 10.6991H70.0066V18.0131C70.0066 20.8844 71.4055 23 75.3108 23C76.6806 23 78.2252 22.6373 79.4492 21.6702L78.4292 18.4665C77.4092 19.1012 76.7971 19.3127 76.0977 19.3127C74.553 19.3127 74.2033 18.5874 74.2033 17.318V10.6991H78.2543V7.28384H74.2033V1.48094L70.0066 2.96189V7.28384H67.6167V10.6991Z" fill="#1C1C1C"/>
<path d="M89.1743 20.5217V22.6373H93.0214V12.9658C93.0214 9.85282 91.3602 6.92115 86.6971 6.92115C83.3747 6.92115 80.8974 8.85545 79.6151 10.276L81.83 12.7543C82.8501 11.7871 84.4821 10.4875 86.2891 10.4875C87.9794 10.4875 88.7663 11.3035 88.9121 12.6032L84.3364 13.7214C81.83 14.3259 79.6151 15.6859 79.6151 18.5572C79.6151 20.9146 81.2471 23 84.4239 23C86.5805 23 88.1543 22.0933 89.1743 20.5217ZM83.8118 18.1038C83.8118 17.2273 84.4239 16.6531 85.6771 16.3509L88.9412 15.565V15.8975C88.9412 18.2247 87.28 19.6452 85.5605 19.6452C84.3656 19.6452 83.8118 19.1012 83.8118 18.1038Z" fill="#1C1C1C"/>
<path d="M93.5743 7.28384L99.1408 22.6373H103.454L109.05 7.28384H104.736L101.385 17.5598L98.0916 7.28384H93.5743Z" fill="#1C1C1C"/>
<path d="M112.19 0C110.704 0 109.684 1.14849 109.684 2.53876C109.684 3.92904 110.704 5.07753 112.19 5.07753C113.735 5.07753 114.755 3.92904 114.755 2.53876C114.755 1.14849 113.735 0 112.19 0ZM110.092 7.28384V22.6373H114.289V7.28384H110.092Z" fill="#1C1C1C"/>
<path d="M116.926 0.574244V22.6373H121.123V0.574244H116.926Z" fill="#1C1C1C"/>
<path d="M123.76 0.574244V22.6373H127.957V0.574244H123.76Z" fill="#1C1C1C"/>
<path d="M137.355 23C140.066 23 142.193 22.1537 143.767 20.159L141.435 17.6202C140.561 18.7083 139.25 19.5545 137.676 19.5545C135.723 19.5545 134.178 18.6176 133.858 16.0184H143.913C143.942 15.7766 144 15.1419 144 14.2654C144 9.70171 141.173 6.92115 137.209 6.92115C132.867 6.92115 129.719 10.2457 129.719 14.9606C129.719 19.9777 132.78 23 137.355 23ZM137.151 10.1551C138.463 10.1551 139.774 10.8804 139.891 13.2076H133.945C134.382 11.0315 135.665 10.1551 137.151 10.1551Z" fill="#1C1C1C"/>
</svg>
